<svg xmlns="http://www.w3.org/2000/svg" xmlns:xlink="http://www.w3.org/1999/xlink" id="Layer_1" data-name="Layer 1" viewBox="0 0 80 40">
  <defs>
    <style>
      .cls-1 {
        fill: url(#radial-gradient-16);
      }

      .cls-1, .cls-2, .cls-3, .cls-4, .cls-5, .cls-6, .cls-7, .cls-8, .cls-9, .cls-10, .cls-11, .cls-12, .cls-13, .cls-14, .cls-15, .cls-16, .cls-17 {
        stroke-width: 0px;
      }

      .cls-18 {
        fill: #29b473;
        font-family: TrebuchetMS, 'Trebuchet MS';
        font-size: 9.12px;
      }

      .cls-2 {
        fill: #fff;
        opacity: .3;
      }

      .cls-3 {
        fill: url(#radial-gradient-8);
      }

      .cls-4 {
        fill: url(#radial-gradient-13);
      }

      .cls-5 {
        fill: url(#radial-gradient-12);
      }

      .cls-19 {
        fill: none;
        stroke: #2e3191;
        stroke-miterlimit: 10;
      }

      .cls-6 {
        fill: url(#radial-gradient-2);
      }

      .cls-7 {
        fill: url(#radial-gradient-7);
      }

      .cls-8 {
        fill: url(#radial-gradient-5);
      }

      .cls-9 {
        fill: url(#radial-gradient);
      }

      .cls-10 {
        fill: url(#radial-gradient-14);
      }

      .cls-11 {
        fill: url(#radial-gradient-10);
      }

      .cls-12 {
        fill: url(#radial-gradient-6);
      }

      .cls-13 {
        fill: url(#radial-gradient-15);
      }

      .cls-14 {
        fill: url(#radial-gradient-9);
      }

      .cls-15 {
        fill: url(#radial-gradient-3);
      }

      .cls-16 {
        fill: url(#radial-gradient-11);
      }

      .cls-17 {
        fill: url(#radial-gradient-4);
      }
    </style>
    <radialGradient id="radial-gradient" cx="17.89" cy="12.21" fx="17.89" fy="12.21" r="1.75" gradientUnits="userSpaceOnUse">
      <stop offset="0" stop-color="#37b34a"/>
      <stop offset=".4" stop-color="#1f9342"/>
      <stop offset="1" stop-color="#006838"/>
    </radialGradient>
    <radialGradient id="radial-gradient-2" cx="19.7" cy="7.5" fx="19.7" fy="7.5" r="3.63" gradientUnits="userSpaceOnUse">
      <stop offset="0" stop-color="#26a9e0"/>
      <stop offset=".45" stop-color="#2a83c4"/>
      <stop offset="1" stop-color="#3058a6"/>
    </radialGradient>
    <radialGradient id="radial-gradient-3" cx="13.48" cy="15.43" fx="13.48" fy="15.43" r="1.24" xlink:href="#radial-gradient"/>
    <radialGradient id="radial-gradient-4" cx="-64.97" cy="32.84" fx="-64.97" fy="32.84" r="3.23" gradientTransform="translate(34.27 -55.55) rotate(-45)" xlink:href="#radial-gradient-2"/>
    <radialGradient id="radial-gradient-5" cx="21.96" cy="11.76" fx="21.96" fy="11.76" r="2.51" xlink:href="#radial-gradient"/>
    <radialGradient id="radial-gradient-6" cx="99.81" cy="186.44" fx="99.81" fy="186.44" r="4.69" gradientTransform="translate(230.73 -55.55) rotate(-135) scale(1 -1)" xlink:href="#radial-gradient-2"/>
    <radialGradient id="radial-gradient-7" cx="13.89" cy="23.72" fx="13.89" fy="23.72" r="2.59" xlink:href="#radial-gradient"/>
    <radialGradient id="radial-gradient-8" cx="11.23" cy="366.55" fx="11.23" fy="366.55" r="5.53" gradientTransform="translate(0 399) scale(1 -1)" xlink:href="#radial-gradient-2"/>
    <radialGradient id="radial-gradient-9" cx="10.42" cy="23.09" fx="10.42" fy="23.09" r="2.49" xlink:href="#radial-gradient"/>
    <radialGradient id="radial-gradient-10" cx="-321.76" cy="280.06" fx="-321.76" fy="280.06" r="4.21" gradientTransform="translate(34.27 454.55) rotate(45) scale(1 -1)" xlink:href="#radial-gradient-2"/>
    <radialGradient id="radial-gradient-11" cx="19.53" cy="20.49" fx="19.53" fy="20.49" r="2.04" xlink:href="#radial-gradient"/>
    <radialGradient id="radial-gradient-12" cx="-158.02" cy="449.41" fx="-158.02" fy="449.41" r="6.51" gradientTransform="translate(230.73 454.55) rotate(135)" xlink:href="#radial-gradient-2"/>
    <radialGradient id="radial-gradient-13" cx="10.63" cy="19.45" fx="10.63" fy="19.45" r="1.66" xlink:href="#radial-gradient"/>
    <radialGradient id="radial-gradient-14" cx="-145.06" cy="69.99" fx="-145.06" fy="69.99" r="3.43" gradientTransform="translate(-63.87 -123.79) rotate(-90)" xlink:href="#radial-gradient-2"/>
    <radialGradient id="radial-gradient-15" cx="22.84" cy="14.94" fx="22.84" fy="14.94" r="2.55" xlink:href="#radial-gradient"/>
    <radialGradient id="radial-gradient-16" cx="-135.65" cy="437.68" fx="-135.65" fy="437.68" r="6.03" gradientTransform="translate(469.87 -123.79) rotate(-90) scale(1 -1)" xlink:href="#radial-gradient-2"/>
  </defs>
  <polygon class="cls-9" points="17.7 13.99 16.73 14.4 17.22 13.03 18.13 10.46 19.05 10.02 18.17 12.61 17.7 13.99"/>
  <path class="cls-6" d="M23.44,5.46c-.48,1.67-2.78,3.98-4.96,5.01-2.03.96-3.04.35-2.42-1.23.59-1.49,2.51-3.44,4.41-4.49,2.03-1.11,3.42-.87,2.97.7Z"/>
  <path class="cls-2" d="M22.77,5.16c.07-.98-1.17-.91-2.7.07-.73.47-1.42,1.08-1.94,1.68.97-.48,2.02-.85,2.92-.8.48.02.97-.04,1.47-.17.15-.29.24-.56.25-.79Z"/>
  <polygon class="cls-15" points="14.75 15.77 13.89 16.65 13.3 16.08 12.21 15.02 13 14.22 14.14 15.23 14.75 15.77"/>
  <path class="cls-17" d="M14.45,10.48c.8.49.03,2.41-1.76,4.23-1.78,1.81-3.68,2.61-4.22,1.87-.5-.68.36-2.46,1.89-4.03s3.35-2.52,4.09-2.07Z"/>
  <path class="cls-2" d="M13.44,10.92c-.71-.14-2.11.75-3.18,1.97-.53.61-.89,1.21-1.06,1.69.84-.82,1.84-1.66,2.98-2.33.59-.35,1.13-.72,1.6-1.08-.06-.13-.18-.22-.34-.25Z"/>
  <polygon class="cls-8" points="19.37 13.84 19.93 14.19 21.38 12.75 24.55 9.57 23.88 9.33 20.78 12.43 19.37 13.84"/>
  <path class="cls-12" d="M25.14,5.08c-2.03,2.05-2.62,4.1-1.2,4.64,1.58.6,4.99-.84,7.49-3.32s2.73-4.69.66-4.84c-1.86-.14-4.9,1.45-6.95,3.52Z"/>
  <path class="cls-2" d="M26.72,4.19c1.75-1.53,4.03-2.49,5.13-2.09.58.21.72.75.47,1.47-1.12-.06-2.57.16-4.44.93-.91.38-1.62.6-2.18.72.28-.34.62-.69,1.01-1.03Z"/>
  <polygon class="cls-7" points="15.51 20.43 14.48 20.76 13.63 23.17 12.27 27 13.35 26.77 14.68 22.87 15.51 20.43"/>
  <path class="cls-3" d="M15.96,31.44c.98-3.4-.53-5.46-3.07-4.9-2.32.51-4.94,3.11-6.1,6.03-1.25,3.14-.51,5.87,1.96,5.87,2.74,0,6.13-3.28,7.2-7Z"/>
  <path class="cls-2" d="M14.27,33.31c-1.21,2.78-3.81,4.76-5.59,4.3-.83-.21-1.3-.91-1.41-1.85,1.28-.18,2.91-.83,4.84-2.4.99-.81,1.87-1.39,2.67-1.8-.08.54-.24,1.13-.5,1.75Z"/>
  <polygon class="cls-14" points="12.85 21.05 12.46 20.55 10.9 22.11 7.99 25.04 8.27 25.63 11.25 22.64 12.85 21.05"/>
  <path class="cls-11" d="M5.59,31.78c2.25-2.23,3.47-5.31,2.79-6.7-.62-1.26-2.6-.67-4.46,1.21s-3.14,4.55-2.88,6.15c.29,1.76,2.33,1.56,4.56-.65Z"/>
  <path class="cls-2" d="M4.32,32.12c-1.64,1.35-2.92,1.13-2.88-.37.02-.7.32-1.57.79-2.4.23.72.75,1.29,1.83,1.32.57.01,1,.15,1.33.37-.33.4-.69.77-1.07,1.08Z"/>
  <polygon class="cls-16" points="17.41 19.56 18.44 18.54 19.46 19.41 21.64 21.29 20.46 22.45 18.38 20.48 17.41 19.56"/>
  <path class="cls-5" d="M18.73,29.89c-1.53-2.06-.52-5.61,2.12-8.21,2.67-2.62,6.5-3.78,8.81-2.39,2.67,1.6,2.26,5.85-1.26,9.21-3.47,3.31-7.9,3.76-9.67,1.39Z"/>
  <path class="cls-2" d="M20.77,29.82c1.85,1.38,5.33.4,7.53-2.32,1.08-1.34,1.57-2.77,1.49-3.96-1.81,1.6-4.06,3.06-6.68,3.84-1.26.38-2.31.84-3.2,1.34.18.43.46.81.86,1.1Z"/>
  <polygon class="cls-4" points="12.67 18.32 12.31 19.24 11.16 19.66 8.58 20.59 8.97 19.71 11.53 18.75 12.67 18.32"/>
  <path class="cls-10" d="M7.6,17.87c1.56-.66,2.24.26,1.39,2.2-.9,2.05-3.06,4.23-4.67,4.72-1.5.45-1.84-.79-.9-2.66s2.71-3.63,4.17-4.25Z"/>
  <path class="cls-2" d="M6.55,18.86c-1.16.65-2.46,2.15-2.95,3.42-.25.65-.26,1.13-.05,1.39.54-1.02,1.3-2.19,2.39-3.42.55-.62.99-1.18,1.34-1.67-.21.04-.45.14-.72.29Z"/>
  <polygon class="cls-13" points="19.93 15.59 19.63 16.6 21.64 15.87 25.81 14.36 26.04 13.29 21.92 14.84 19.93 15.59"/>
  <path class="cls-1" d="M32.14,7.44c-3.27,1.39-6.09,4.19-6.59,6.52-.54,2.52,1.74,3.88,5.46,2.75,4.16-1.26,7.9-4.87,7.9-7.68,0-2.56-3.18-3.11-6.77-1.59Z"/>
  <path class="cls-2" d="M32.73,7.97c2.76-.85,4.74.04,4.18,2.16-.29,1.09-1.2,2.26-2.43,3.23-.05-1.42-.6-2.71-2.09-3.47-.71-.36-1.15-.77-1.41-1.19.56-.3,1.15-.55,1.75-.74Z"/>
  <path class="cls-19" d="M25.56,14.03c-1.12,5.23-7.31,11.3-12.62,12.48-4.43.98-5.85-2.15-4-6.36,1.64-3.75,5.66-7.83,9.57-9.68,4.5-2.12,8.01-.91,7.05,3.56Z"/>
  <text class="cls-18" transform="translate(33.21 23.06) scale(.93 1)"><tspan x="0" y="0">Surfactants </tspan></text>
</svg>